<svg width="20" height="15" viewBox="0 0 20 15" fill="none" xmlns="http://www.w3.org/2000/svg">
<g clip-path="url(#clip0_7_269)">
<path d="M7.36505 4.16011C8.51806 4.16011 9.45276 3.22884 9.45276 2.08006C9.45276 0.931273 8.51806 0 7.36505 0C6.21204 0 5.27734 0.931273 5.27734 2.08006C5.27734 3.22884 6.21204 4.16011 7.36505 4.16011Z" fill="#073773"/>
<path d="M12.6385 4.16011C13.7915 4.16011 14.7262 3.22884 14.7262 2.08006C14.7262 0.931273 13.7915 0 12.6385 0C11.4855 0 10.5508 0.931273 10.5508 2.08006C10.5508 3.22884 11.4855 4.16011 12.6385 4.16011Z" fill="#073773"/>
<path d="M17.9129 4.16011C19.0659 4.16011 20.0006 3.22884 20.0006 2.08006C20.0006 0.931273 19.0659 0 17.9129 0C16.7599 0 15.8252 0.931273 15.8252 2.08006C15.8252 3.22884 16.7599 4.16011 17.9129 4.16011Z" fill="#073773"/>
<path d="M2.0877 9.58003C3.24071 9.58003 4.17541 8.64876 4.17541 7.49998C4.17541 6.35119 3.24071 5.41992 2.0877 5.41992C0.934697 5.41992 0 6.35119 0 7.49998C0 8.64876 0.934697 9.58003 2.0877 9.58003Z" fill="#073773"/>
<path d="M7.36505 9.58003C8.51806 9.58003 9.45276 8.64876 9.45276 7.49998C9.45276 6.35119 8.51806 5.41992 7.36505 5.41992C6.21204 5.41992 5.27734 6.35119 5.27734 7.49998C5.27734 8.64876 6.21204 9.58003 7.36505 9.58003Z" fill="#073773"/>
<path d="M12.6385 9.58003C13.7915 9.58003 14.7262 8.64876 14.7262 7.49998C14.7262 6.35119 13.7915 5.41992 12.6385 5.41992C11.4855 5.41992 10.5508 6.35119 10.5508 7.49998C10.5508 8.64876 11.4855 9.58003 12.6385 9.58003Z" fill="#073773"/>
<path d="M17.9129 9.58003C19.0659 9.58003 20.0006 8.64876 20.0006 7.49998C20.0006 6.35119 19.0659 5.41992 17.9129 5.41992C16.7599 5.41992 15.8252 6.35119 15.8252 7.49998C15.8252 8.64876 16.7599 9.58003 17.9129 9.58003Z" fill="#073773"/>
<path d="M2.0877 15C3.24071 15 4.17541 14.0687 4.17541 12.9199C4.17541 11.7711 3.24071 10.8398 2.0877 10.8398C0.934697 10.8398 0 11.7711 0 12.9199C0 14.0687 0.934697 15 2.0877 15Z" fill="#073773"/>
<path d="M7.36505 15C8.51806 15 9.45276 14.0687 9.45276 12.9199C9.45276 11.7711 8.51806 10.8398 7.36505 10.8398C6.21204 10.8398 5.27734 11.7711 5.27734 12.9199C5.27734 14.0687 6.21204 15 7.36505 15Z" fill="#073773"/>
<path d="M12.6385 15C13.7915 15 14.7262 14.0687 14.7262 12.9199C14.7262 11.7711 13.7915 10.8398 12.6385 10.8398C11.4855 10.8398 10.5508 11.7711 10.5508 12.9199C10.5508 14.0687 11.4855 15 12.6385 15Z" fill="#073773"/>
</g>
<defs>
<clipPath id="clip0_7_269">
<rect width="20" height="15" fill="white"/>
</clipPath>
</defs>
</svg>
