<svg width="14" height="10" viewBox="0 0 14 10" fill="none" xmlns="http://www.w3.org/2000/svg">
<path d="M13.7115 1.56476C13.5502 0.952892 13.0773 0.470562 12.4777 0.305804C11.3821 0 6.99984 0 6.99984 0C6.99984 0 2.61774 0 1.5222 0.29421C0.934047 0.458793 0.449635 0.952979 0.288306 1.56476C0 2.68232 0 5 0 5C0 5 0 7.32936 0.288306 8.43524C0.449806 9.04702 0.922512 9.52935 1.52228 9.69411C2.62928 10 7.00001 10 7.00001 10C7.00001 10 11.3821 10 12.4777 9.70579C13.0774 9.54112 13.5502 9.05879 13.7117 8.44701C13.9999 7.32936 13.9999 5.01177 13.9999 5.01177C13.9999 5.01177 14.0115 2.68232 13.7115 1.56476ZM5.60463 7.14115V2.85885L9.2487 5L5.60463 7.14115Z" fill="#939598"/>
</svg>
