<svg width="80" height="80" viewBox="0 0 80 80" fill="none" xmlns="http://www.w3.org/2000/svg">
<path d="M56.9909 6.45661C55.6999 7.1945 54.0399 8.73178 52.7489 10.3306C51.6423 11.7448 49.7979 14.2045 49.4291 14.6964C49.4291 14.6964 45.9863 19.3697 41.8672 24.9654C51.6423 23.5511 57.7901 18.9393 60.6796 13.3436C62.3395 10.0846 62.4625 7.13301 61.2329 6.14916C61.11 6.08766 60.987 5.96468 60.8641 5.90319C60.5567 5.71872 60.1263 5.65723 59.696 5.65723C58.8967 5.65723 57.9131 5.96468 56.9909 6.45661Z" fill="#073773"/>
<path d="M62.769 16.4798C57.5434 25.642 47.5224 30.0694 37.3784 30.9917C35.5955 33.3899 33.8126 35.788 32.3372 37.8172C31.292 39.2315 29.9395 41.0148 28.6484 42.675C32.706 45.2577 36.8866 48.0248 41.1901 50.5459C43.4033 47.5328 45.555 44.5813 47.5224 41.9371H44.0181C40.2679 41.9371 38.3006 42.7365 37.194 43.5974H36.8866C36.8866 43.5974 37.9932 41.1992 39.9605 39.4775C42.0508 37.6943 44.4484 36.7719 47.1535 36.7719H51.3955C53.6087 33.7588 55.0842 31.7911 55.0842 31.7911C58.0967 27.7327 61.4165 24.7811 64.6749 23.1823C68.7325 21.1531 72.7286 20.9687 75.741 21.9525C73.1589 16.8488 69.5317 12.2984 65.1052 8.73193C65.0437 10.9456 64.429 13.5897 62.769 16.4798Z" fill="#073773"/>
<path d="M68.1203 41.9984H57.4845C54.5336 45.9953 51.1522 50.6071 48.3242 54.4196C53.7343 57.0637 59.1444 58.8469 64.3086 58.8469C74.3297 58.8469 79.8627 50.6686 79.8627 39.9692C79.8627 38.3704 79.7398 36.7716 79.5553 35.1729C78.5717 38.8623 74.637 41.9984 68.1203 41.9984Z" fill="#073773"/>
<path d="M72.2976 25.5187C69.8385 26.0107 67.8097 28.0399 65.1661 31.6064C65.1661 31.6064 63.6292 33.6971 61.293 36.8331H69.7155C75.9864 36.8331 79.3677 33.2666 78.384 29.2082C78.384 29.1467 78.384 29.0852 78.3225 29.0852C78.3225 29.0237 78.3225 29.0237 78.2611 28.9622C78.2611 28.9007 78.1996 28.8393 78.1996 28.7778C77.4618 26.5026 75.4945 25.3958 73.3428 25.3958C73.0969 25.3958 72.728 25.4572 72.2976 25.5187Z" fill="#073773"/>
<path d="M20.5968 12.7287C19.7361 19.0008 23.8551 24.166 31.7244 25.2114C36.5812 18.6318 40.4543 13.4051 40.4543 13.4051C44.8808 7.50192 47.094 5.28824 50.5983 3.32052C51.459 2.82859 52.3197 2.52114 53.1804 2.27517C49.0613 0.799385 44.5734 0 39.901 0C29.9415 0 21.6419 4.91929 20.5968 12.7287Z" fill="#073773"/>
<path d="M0 37.2022C1.84436 35.3575 4.79533 34.0047 9.59066 34.1891C13.1564 34.3121 17.2755 36.0954 21.8249 38.6165C23.6692 36.0954 25.6366 33.4513 27.6039 30.8071C19.2428 29.2084 14.9393 23.4282 14.9393 17.4636C14.9393 12.2368 17.214 7.80945 20.9027 4.79639C9.16031 11.13 0.983657 23.1822 0 37.2022Z" fill="#073773"/>
<path d="M8.72917 53.4974C5.83968 53.4974 3.44201 52.698 1.59766 51.4682C2.70427 55.1576 4.36419 58.6626 6.39298 61.7987C9.71283 66.718 13.8934 68.5627 20.5945 67.8248C26.9883 67.1484 32.3369 62.6596 37.2552 55.957C37.3167 55.8955 37.3782 55.834 37.4397 55.7726C34.6116 53.7434 31.8451 51.5912 29.0786 49.562C27.726 48.5781 26.435 47.5942 25.2054 46.6719C20.8404 50.7303 15.9836 53.4974 8.72917 53.4974Z" fill="#939598"/>
<path d="M15.3672 71.6373C22.1298 76.8641 30.6139 80.0001 39.8971 80.0001C54.529 80.0001 67.3166 72.1293 74.2637 60.4459C71.3742 63.459 67.1936 65.7957 61.2302 65.9802C55.3897 66.1646 49.6107 63.705 44.0162 60.2615C36.8847 68.9317 25.8185 74.5889 15.3672 71.6373Z" fill="#939598"/>
<path d="M6.33198 37.5713C3.31953 37.7557 -0.307705 39.662 0.061166 43.9048V43.9663C0.491516 48.2092 4.36467 49.808 8.48373 49.3776C12.6028 49.0086 15.4923 46.6104 18.9966 42.1831C14.8775 39.4775 10.9429 37.5098 7.1312 37.5098C6.88529 37.5098 6.57789 37.5098 6.33198 37.5713Z" fill="#939598"/>
</svg>
