<svg  preserveAspectRatio="none" viewBox="0 0 768 180" fill="none" xmlns="http://www.w3.org/2000/svg">
<path d="M1226 155.318V213C1078.97 205.856 943.509 178.602 809.756 145.66C753.74 131.901 697.926 117.084 641.71 102.266C629.239 98.959 616.669 95.6516 604.198 92.4764C572.822 84.2739 541.344 76.2037 509.465 68.3981C388.081 38.6311 262.172 12.7006 125 0.926087C138.778 0.396895 152.857 0 167.741 0C564.173 2.24907 864.967 141.691 1226 155.318Z" fill="#BBBBBB"/>
<path d="M1209 197.427V222H-16V22.5356C66.7726 6.473 118.835 0 178.128 0C190.719 0 203.564 0.359611 217.09 0.839093C237.592 1.91793 257.753 3.35637 277.66 5.15443C393.694 15.8229 500.201 39.3175 602.88 66.2883C629.847 73.3607 656.474 80.6728 683.016 88.1048C693.649 91.1015 704.198 94.0983 714.747 96.9752C762.3 110.401 809.429 123.826 856.898 136.413C970.04 166.26 1084.63 190.954 1209 197.427Z" fill="url(#paint0_linear_165_702)"/>
<defs>
<linearGradient id="paint0_linear_165_702" x1="-16" y1="111.006" x2="1209" y2="111.006" gradientUnits="userSpaceOnUse">
<stop stop-color="#3483C7"/>
<stop offset="1" stop-color="#073773"/>
</linearGradient>
</defs>
</svg>
