<svg width="185" height="45" viewBox="0 0 185 45" fill="none" xmlns="http://www.w3.org/2000/svg">
<path d="M32.0554 3.63157C31.3292 4.04661 30.3955 4.91127 29.6694 5.81051C29.0469 6.606 28.0096 7.98946 27.8021 8.26615C27.8021 8.26615 25.8656 10.8947 23.5488 14.0421C29.0469 13.2466 32.5049 10.6526 34.1301 7.50525C35.0638 5.67217 35.1329 4.01202 34.4413 3.45864C34.3722 3.42405 34.303 3.35488 34.2339 3.32029C34.061 3.21653 33.8189 3.18195 33.5768 3.18195C33.1273 3.18195 32.574 3.35488 32.0554 3.63157Z" fill="white"/>
<path d="M35.3048 9.26927C32.3656 14.4226 26.7291 16.9129 21.0236 17.4317C20.0208 18.7805 19.0179 20.1294 18.188 21.2708C17.6002 22.0663 16.8394 23.0693 16.1133 24.0031C18.3955 25.4557 20.7469 27.0121 23.1675 28.4302C24.4123 26.7354 25.6226 25.0753 26.7291 23.5881H24.7581C22.6488 23.5881 21.5422 24.0377 20.9198 24.5219H20.7469C20.7469 24.5219 21.3693 23.173 22.4759 22.2046C23.6516 21.2016 25.0002 20.6828 26.5217 20.6828H28.9076C30.1525 18.9881 30.9824 17.8813 30.9824 17.8813C32.6768 15.5986 34.5441 13.9384 36.3768 13.0392C38.659 11.8978 40.9067 11.7941 42.6011 12.3475C41.1487 9.47679 39.1086 6.91739 36.6189 4.91138C36.5843 6.15649 36.2385 7.64371 35.3048 9.26927Z" fill="white"/>
<path d="M38.3142 23.6225H32.332C30.6722 25.8706 28.7703 28.4646 27.1797 30.6089C30.2227 32.0962 33.2657 33.0992 36.1703 33.0992C41.8068 33.0992 44.9189 28.4992 44.9189 22.4811C44.9189 21.5819 44.8497 20.6826 44.746 19.7834C44.1927 21.8586 41.9797 23.6225 38.3142 23.6225Z" fill="white"/>
<path d="M40.6643 14.3534C39.2811 14.63 38.14 15.7714 36.6531 17.7774C36.6531 17.7774 35.7886 18.9533 34.4746 20.7173H39.212C42.7391 20.7173 44.6409 18.7112 44.0877 16.4285C44.0877 16.394 44.0877 16.3594 44.0531 16.3594C44.0531 16.3248 44.0531 16.3248 44.0185 16.2902C44.0185 16.2556 43.9839 16.221 43.9839 16.1864C43.569 14.9067 42.4624 14.2842 41.2522 14.2842C41.1139 14.2842 40.9064 14.3188 40.6643 14.3534Z" fill="white"/>
<path d="M11.5847 7.15939C11.1006 10.6872 13.4174 13.5925 17.8436 14.1804C20.5753 10.4797 22.7538 7.53984 22.7538 7.53984C25.2435 4.21955 26.4884 2.97443 28.4594 1.86767C28.9435 1.59098 29.4276 1.41804 29.9118 1.2797C27.5949 0.449624 25.0706 0 22.4426 0C16.8408 0 12.1725 2.76692 11.5847 7.15939Z" fill="white"/>
<path d="M0 20.9247C1.03738 19.8872 2.69719 19.1263 5.39438 19.23C7.39999 19.2992 9.7168 20.3022 12.2757 21.7202C13.3131 20.3022 14.4196 18.815 15.5261 17.3278C10.8233 16.4285 8.40279 13.1774 8.40279 9.8225C8.40279 6.88265 9.68223 4.39243 11.757 2.69769C5.15233 6.2601 0.55327 13.039 0 20.9247Z" fill="white"/>
<path d="M4.90965 30.0903C3.28441 30.0903 1.93582 29.6406 0.898438 28.9489C1.52087 31.0241 2.45451 32.9955 3.59563 34.7594C5.46291 37.5263 7.81431 38.5639 11.5835 38.1489C15.1797 37.7684 18.1881 35.2436 20.9545 31.4737C20.9891 31.4391 21.0236 31.4045 21.0582 31.37C19.4676 30.2286 17.9115 29.0181 16.3554 27.8767C15.5947 27.3233 14.8685 26.77 14.1769 26.2512C11.7218 28.5339 8.99001 30.0903 4.90965 30.0903Z" fill="white"/>
<path d="M8.64258 40.2933C12.4463 43.2332 17.2183 44.9971 22.4397 44.9971C30.6696 44.9971 37.8621 40.57 41.7696 33.9986C40.1444 35.6933 37.793 37.0076 34.4388 37.1114C31.1537 37.2151 27.9033 35.8317 24.7566 33.8948C20.7454 38.7715 14.5211 41.9535 8.64258 40.2933Z" fill="white"/>
<path d="M3.56126 21.1325C1.86687 21.2362 -0.173316 22.3084 0.0341607 24.6949V24.7295C0.276216 27.1159 2.45472 28.0152 4.77153 27.7731C7.08835 27.5656 8.71358 26.2167 10.6846 23.7265C8.36779 22.2047 6.15471 21.0979 4.01079 21.0979C3.87247 21.0979 3.69957 21.0979 3.56126 21.1325Z" fill="white"/>
<path d="M64.0743 8.81957C63.1407 9.68424 62.5182 10.7564 62.2762 12.0707L61.1696 17.5008C60.9276 18.6421 60.6509 19.4376 60.3397 19.8181C60.0285 20.2331 59.5098 20.406 58.8182 20.406H58.2995L57.0547 21.6857L66.3565 21.9624C67.0135 21.9624 67.5668 21.8587 67.9818 21.6511C68.3967 21.4436 68.9846 20.994 69.8145 20.2677L69.9528 19.6105C68.8808 20.2677 67.6706 20.579 66.2528 20.579L60.2706 20.5098C61.1696 20.0256 61.8266 19.4376 62.2416 18.7805C62.6565 18.1233 63.0023 17.2241 63.2444 16.0136L64.2472 11.0331C64.6276 9.16544 65.3537 8.2316 66.4603 8.2316C67.5668 8.2316 68.1201 8.78499 68.1201 9.85717C68.1201 9.96093 68.1201 10.0647 68.0855 10.2376H68.6388L69.0883 8.05867C68.3967 7.67822 67.7743 7.4707 67.221 7.4707C66.0799 7.53988 65.0079 7.95491 64.0743 8.81957Z" fill="white"/>
<path d="M73.9986 14.3533C74.6556 13.4195 75.3127 12.9699 76.0042 12.9699C76.6613 12.9699 76.9725 13.4195 76.9725 14.3187C76.9725 15.218 76.5921 15.9443 75.8659 16.5323C75.1398 17.0856 74.137 17.4315 72.8229 17.5353C72.9613 16.3247 73.3762 15.2526 73.9986 14.3533ZM72.8575 14.215C71.6127 15.6676 70.9902 17.1894 70.9902 18.815C70.9902 19.7142 71.2323 20.4751 71.751 21.0631C72.2697 21.6511 72.9267 21.9278 73.7566 21.9278C75.0706 21.9278 76.6267 21.2706 78.4594 19.9909L78.5977 19.3338C77.0416 20.4059 75.7622 20.9247 74.6902 20.9247C73.4454 20.9247 72.8229 20.0947 72.8229 18.3999V18.0195C74.4136 18.0195 75.7622 17.6044 76.9033 16.809C78.0444 16.0135 78.5977 15.0451 78.5977 13.9383C78.5977 13.3849 78.4248 12.9353 78.1136 12.5894C77.8024 12.2435 77.3874 12.0706 76.8687 12.0706C75.451 12.0706 74.137 12.7969 72.8575 14.215Z" fill="white"/>
<path d="M81.5735 19.2993C81.5735 18.0542 81.9539 16.6361 82.6801 15.0452C83.3025 13.6963 84.167 13.0392 85.2043 13.0392C85.9305 13.0392 86.6221 13.2121 87.3829 13.5234L87.0025 15.4948C86.3109 16.8437 85.481 18.0542 84.5473 19.0918C83.6137 20.1294 82.8875 20.6482 82.4034 20.6482C81.8502 20.6482 81.5735 20.1986 81.5735 19.2993ZM81.781 14.6993C80.4324 16.3249 79.7754 17.985 79.7754 19.6452C79.7754 21.167 80.3978 21.9279 81.6081 21.9279C82.4034 21.9279 83.2679 21.4783 84.2016 20.5444C85.1352 19.6106 85.8959 18.4346 86.5529 16.982H86.7258L86.3109 19.1264C86.1726 19.8181 86.1034 20.3023 86.1034 20.6136C86.1034 21.4783 86.5184 21.9279 87.3829 21.9279C88.3857 21.9279 89.5268 21.2361 90.8062 19.8873L90.9791 19.0918C89.838 20.3715 88.9735 20.994 88.3857 20.994C88.0399 20.994 87.867 20.8211 87.867 20.4407C87.867 20.2331 87.9361 19.8181 88.0744 19.1264L88.9043 14.8377L89.5268 12.2783C88.6277 12.2091 87.7632 12.1745 86.9333 12.1745C84.8586 12.1745 83.1642 13.0046 81.781 14.6993Z" fill="white"/>
<path d="M93.5032 19.2992C93.5032 18.0541 93.8836 16.6361 94.6097 15.0451C95.2322 13.6962 96.0967 13.0391 97.134 13.0391C97.8602 13.0391 98.5864 13.212 99.3125 13.5233L98.9322 15.4947C98.2406 16.8436 97.4107 18.0541 96.477 19.0917C95.5434 20.1293 94.8172 20.6827 94.3331 20.6827C93.7453 20.6481 93.5032 20.1985 93.5032 19.2992ZM102.217 7.85114C101.56 8.36994 101.007 8.9579 100.661 9.54587C100.281 10.1684 99.935 11.0331 99.5892 12.1744C98.3789 12.1744 97.4453 12.2782 96.8228 12.4511C96.2004 12.6241 95.5434 12.9699 94.921 13.4887C93.9527 14.2496 93.192 15.218 92.6041 16.3594C92.0163 17.5008 91.7051 18.6075 91.7051 19.6451C91.7051 21.1669 92.3275 21.9624 93.5378 21.9624C94.3331 21.9624 95.1976 21.5128 96.0967 20.5789C97.0303 19.6451 97.791 18.4692 98.4826 17.0165H98.6555L98.2406 19.1609C98.1023 19.8526 98.0331 20.3714 98.0331 20.6481C98.0331 21.5128 98.4481 21.9624 99.278 21.9624C100.281 21.9624 101.422 21.2707 102.701 19.9218L102.874 19.1263C101.733 20.406 100.869 21.0286 100.281 21.0286C99.935 21.0286 99.7621 20.8556 99.7621 20.4752C99.7621 20.3023 99.8312 19.8526 99.9695 19.1955L101.318 12.3128C101.699 10.4451 102.113 9.20001 102.563 8.50828C103.047 7.81655 103.739 7.50527 104.672 7.50527C105.156 7.50527 105.744 7.64362 106.436 7.9549L107.612 6.70979C107.127 6.57144 106.609 6.53685 106.056 6.53685C104.638 6.46768 103.358 6.95189 102.217 7.85114Z" fill="white"/>
<path d="M111.379 20.1638C110.86 19.6104 110.618 18.9187 110.618 18.0886C110.618 16.5322 111.413 15.3563 113.038 14.6299C113.765 16.7397 114.664 18.5728 115.701 20.0946C114.767 20.6826 113.972 20.9593 113.28 20.9593C112.485 20.9938 111.863 20.7172 111.379 20.1638ZM114.041 11.4134C114.041 10.7217 114.214 10.1337 114.525 9.71866C114.837 9.26904 115.286 9.06152 115.805 9.06152C116.635 9.06152 117.05 9.58032 117.05 10.5833C117.05 12.0014 116.185 13.0735 114.456 13.7307C114.18 12.8314 114.041 12.036 114.041 11.4134ZM113.592 9.6149C112.831 10.3412 112.416 11.1713 112.416 12.0705C112.416 12.5548 112.589 13.2465 112.9 14.1457C110.168 15.2525 108.785 16.7397 108.785 18.6074C108.785 19.6104 109.131 20.4059 109.788 21.063C110.445 21.7202 111.309 22.0314 112.312 22.0314C113.523 22.0314 114.733 21.5472 115.978 20.5096C118.087 23.3457 119.92 25.075 123.412 25.3517C128.219 25.7322 130.639 22.4119 131.435 18.2961L131.953 15.7367H132.368C133.198 15.7367 134.097 15.8059 134.996 15.9442L135.861 15.045H132.057L133.164 9.47656H133.544C135.93 9.47656 138.973 9.85701 138.973 10.6179C138.973 10.86 138.938 11.0675 138.869 11.3096H139.422L140.218 8.854H133.302C130.812 8.854 128.945 9.26904 127.735 10.0991C126.49 10.9292 125.798 12.2435 125.66 14.0074L127.354 13.1773V12.9698C127.354 11.9322 127.735 11.1021 128.461 10.445C129.187 9.78784 130.155 9.47656 131.365 9.47656L130.259 15.0104H129.325L128.703 15.7021H130.086L129.222 20.0254C128.599 23.2074 127.112 24.5562 124.795 24.6254C121.337 24.7638 119.194 21.9277 117.43 19.472C118.537 18.469 119.332 17.2585 119.781 15.875H120.058C120.68 15.875 121.303 15.5984 121.994 15.0796L122.686 14.0074C122.064 14.3878 121.199 14.5608 120.058 14.5608H117.741L116.911 15.8405H118.709C118.571 17.0164 118.018 18.054 117.119 19.0224C116.22 17.639 115.39 16.1863 114.629 14.1803C117.188 13.3848 118.467 12.1743 118.467 10.5833C118.467 9.96077 118.26 9.44197 117.845 9.02693C117.43 8.64648 116.877 8.43896 116.185 8.43896C115.217 8.50814 114.352 8.88859 113.592 9.6149Z" fill="white"/>
<path d="M139.701 18.3654C139.701 16.9473 140.046 15.6676 140.703 14.5263C141.36 13.3849 142.121 12.8316 142.951 12.8316C144.127 12.8316 144.715 13.8 144.715 15.7022C144.715 17.1549 144.403 18.4346 143.746 19.5413C143.089 20.6481 142.329 21.2015 141.464 21.2015C140.289 21.2015 139.701 20.2331 139.701 18.3654ZM139.701 14.1804C138.421 15.5985 137.799 17.1549 137.799 18.815C137.799 19.7143 138.041 20.4406 138.56 21.0285C139.078 21.6165 139.701 21.9278 140.461 21.9278C142.018 21.9278 143.435 21.2361 144.715 19.818C145.994 18.4346 146.617 16.8436 146.617 15.1143C146.617 14.215 146.34 13.4887 145.821 12.9007C145.303 12.3128 144.646 12.0361 143.816 12.0361C142.329 12.0707 140.946 12.7624 139.701 14.1804Z" fill="white"/>
<path d="M157.922 6.26038C157.749 6.43331 157.576 6.60624 157.438 6.81376C156.919 6.57166 156.262 6.50248 155.709 6.50248C154.049 6.50248 152.632 7.09045 151.49 8.26639C150.349 9.44233 149.554 11.0679 149.139 13.1777L147.929 19.1957C147.79 19.8183 147.756 20.3025 147.756 20.6829C147.756 21.5822 148.171 22.0318 149.001 22.0318C150.004 22.0318 151.179 21.3401 152.528 19.922L152.701 19.1265C152.493 19.3341 152.32 19.4378 152.251 19.5416C151.145 20.5792 150.384 21.098 150.004 21.098C149.658 21.098 149.485 20.925 149.485 20.5446C149.485 20.3371 149.554 19.922 149.692 19.2303L151.075 12.3476C151.456 10.4799 151.871 9.20022 152.32 8.54308C152.77 7.88594 153.496 7.57466 154.395 7.54007C155.121 7.50549 156.09 7.81677 156.608 8.2318C156.159 9.09646 155.813 10.0995 155.605 11.2408L154.015 19.2303C153.876 19.8528 153.842 20.3371 153.842 20.7175C153.842 21.6168 154.257 22.0664 155.087 22.0664C156.09 22.0664 157.265 21.3747 158.614 19.9566L158.787 19.1611C158.579 19.3686 158.406 19.4724 158.337 19.5762C157.231 20.6137 156.47 21.1325 156.09 21.1325C155.744 21.1325 155.571 20.9596 155.571 20.5792C155.571 20.3716 155.64 19.9566 155.778 19.2649L157.542 10.4107C157.922 8.54308 158.337 7.26338 158.787 6.60624C159.236 5.9491 159.928 5.60323 160.861 5.60323C161.346 5.60323 161.933 5.74158 162.59 6.05286L163.801 4.80775C163.351 4.6694 162.798 4.63481 162.245 4.63481C160.481 4.49647 159.063 5.08444 157.922 6.26038Z" fill="white"/>
<path d="M161.417 18.3654C161.417 16.9473 161.763 15.6676 162.42 14.5263C163.077 13.3849 163.838 12.8316 164.668 12.8316C165.844 12.8316 166.432 13.8 166.432 15.7022C166.432 17.1549 166.12 18.4346 165.463 19.5413C164.806 20.6481 164.046 21.2015 163.181 21.2015C162.005 21.2015 161.417 20.2331 161.417 18.3654ZM161.417 14.1804C160.138 15.5985 159.516 17.1549 159.516 18.815C159.516 19.7143 159.758 20.4406 160.276 21.0285C160.795 21.6165 161.417 21.9278 162.178 21.9278C163.734 21.9278 165.152 21.2361 166.432 19.818C167.711 18.4346 168.333 16.8436 168.333 15.1143C168.333 14.215 168.057 13.4887 167.538 12.9007C167.019 12.3128 166.362 12.0361 165.532 12.0361C164.046 12.0707 162.697 12.7624 161.417 14.1804Z" fill="white"/>
<path d="M169.265 14.2495L169.023 15.4254C169.923 14.0074 170.718 13.3156 171.409 13.3156C172.136 13.3156 172.62 13.8344 172.896 14.8375C173.173 15.8405 173.311 17.639 173.311 20.2329C173.311 20.7863 173.311 21.3743 173.277 21.9623L174.21 21.7547C175.455 20.2329 176.804 18.0194 178.187 15.1141C178.498 16.6359 178.637 18.5728 178.637 20.9247L178.602 21.9623L179.466 21.7547L181.092 19.5412L181.576 18.9187C182.786 17.2931 183.685 15.9788 184.204 15.045C184.722 14.1111 184.999 13.4194 184.999 12.9352C184.999 12.6931 184.965 12.451 184.861 12.2089L182.924 12.3126C183.166 12.7969 183.305 13.2119 183.305 13.5923C183.305 14.2149 182.994 15.1487 182.406 16.3593C181.818 17.5698 181.092 18.7111 180.262 19.8179C180.262 17.2931 179.881 14.7683 179.086 12.2089L178.291 12.4164C178.014 14.6991 176.873 17.2239 174.937 20.0254L174.971 19.1262C174.971 14.457 174.072 12.1051 172.308 12.1051C171.306 12.0705 170.303 12.7969 169.265 14.2495Z" fill="white"/>
<path d="M59.718 29.0873H60.2367C60.9629 29.0873 61.2741 29.5369 61.2741 30.7129C61.2741 31.8888 60.9974 32.3039 60.2713 32.3039H59.718V29.0873ZM58.8535 28.6377V32.7881H60.2713C61.5853 32.7881 62.2769 32.0618 62.2769 30.7475C62.2769 29.364 61.5507 28.6723 60.2713 28.6723H58.8535V28.6377Z" fill="white"/>
<path d="M65.3219 29.2603L65.9098 31.1971H64.7341L65.3219 29.2603ZM65.0453 28.6377L63.6621 32.7881H64.1808L64.5612 31.6121H66.0135L66.3593 32.7881H67.2929L66.0135 28.6377H65.0453Z" fill="white"/>
<path d="M71.7159 28.6377V31.1625L71.7505 31.4392L70.0215 28.6377H69.0879V32.7881H69.6412V30.0557L69.6066 29.6753L71.5776 32.7881H72.2692V28.6377H71.7159Z" fill="white"/>
<path d="M74.207 30.7473C74.207 32.027 74.864 32.8571 76.1089 32.8571C77.1809 32.8571 77.5612 32.0962 77.5612 32.0962L77.2846 31.7849C77.2846 31.7849 76.9042 32.3729 76.2126 32.3729C75.521 32.3729 75.1407 31.9578 75.1407 30.7127C75.1407 29.4676 75.4865 29.0526 76.1781 29.0526C76.6622 29.0526 77.25 29.3638 77.25 29.3638L77.3537 28.9142C77.3537 28.9142 76.7313 28.6029 76.0743 28.6029C74.8986 28.5683 74.207 29.433 74.207 30.7473Z" fill="white"/>
<path d="M79.3594 28.6377V32.7881H81.9182V32.3384H80.2239V30.9204H81.6416V30.4708H80.2239V29.0873H81.8491V28.6377H79.3594Z" fill="white"/>
<path d="M86.7608 29.8135C86.7608 31.1278 88.4206 30.9895 88.4206 31.785C88.4206 32.1308 88.2131 32.3729 87.7982 32.3729C87.1757 32.3729 86.8299 31.9579 86.8299 31.9579L86.5879 32.3383C86.5879 32.3383 86.8991 32.8571 87.8327 32.8571C88.6281 32.8571 89.2851 32.4075 89.2851 31.612C89.2851 30.2286 87.6253 30.4361 87.6253 29.5368C87.6253 29.191 87.8327 29.018 88.144 29.018C88.5935 29.018 89.0084 29.2947 89.0084 29.2947L89.1122 28.8451C89.1122 28.8451 88.6627 28.5684 88.1094 28.5684C87.3141 28.5684 86.7608 29.0526 86.7608 29.8135Z" fill="white"/>
<path d="M90.9785 30.7473C90.9785 32.027 91.6355 32.8571 92.8804 32.8571C93.9523 32.8571 94.3327 32.0962 94.3327 32.0962L94.0561 31.7849C94.0561 31.7849 93.6757 32.3729 92.9841 32.3729C92.2925 32.3729 91.9122 31.9578 91.9122 30.7127C91.9122 29.4676 92.2579 29.0526 92.9495 29.0526C93.4336 29.0526 94.0215 29.3638 94.0215 29.3638L94.1252 28.9142C94.1252 28.9142 93.5028 28.6029 92.8458 28.6029C91.6701 28.5683 90.9785 29.433 90.9785 30.7473Z" fill="white"/>
<path d="M98.4477 28.6377V30.4362H96.9953V28.6377H96.1309V32.7881H96.9953V30.8858H98.4477V32.7881H99.3122V28.6377H98.4477Z" fill="white"/>
<path d="M102.216 30.7128C102.216 29.5368 102.493 29.018 103.115 29.018C103.772 29.018 104.049 29.5368 104.049 30.7128C104.049 31.8887 103.772 32.4075 103.115 32.4075C102.458 32.4075 102.216 31.8887 102.216 30.7128ZM101.248 30.7128C101.248 32.0271 101.905 32.8571 103.115 32.8571C104.326 32.8571 105.017 32.0271 105.017 30.7128C105.017 29.3985 104.36 28.5684 103.115 28.5684C101.905 28.5684 101.248 29.4331 101.248 30.7128Z" fill="white"/>
<path d="M107.712 30.7128C107.712 29.5368 107.989 29.018 108.611 29.018C109.268 29.018 109.545 29.5368 109.545 30.7128C109.545 31.8887 109.268 32.4075 108.611 32.4075C107.954 32.4075 107.712 31.8887 107.712 30.7128ZM106.744 30.7128C106.744 32.0271 107.401 32.8571 108.611 32.8571C109.822 32.8571 110.513 32.0271 110.513 30.7128C110.513 29.3985 109.856 28.5684 108.611 28.5684C107.401 28.5684 106.744 29.4331 106.744 30.7128Z" fill="white"/>
<path d="M112.453 28.6376V32.788H114.943V32.3384H113.318V28.6376H112.453Z" fill="white"/>
</svg>
