<svg width="34" height="28" viewBox="0 0 34 28" fill="none" xmlns="http://www.w3.org/2000/svg">
<path d="M20.0401 1.75301L31.5818 13.2932L0.708355 13.2932C0.317156 13.2932 -6.04971e-07 13.6103 -5.87871e-07 14.0015C-5.70771e-07 14.3927 0.317156 14.7099 0.708355 14.7099L31.5818 14.7099L20.0401 26.25C19.7683 26.5314 19.7762 26.9798 20.0575 27.2516C20.3321 27.5167 20.7672 27.5167 21.0417 27.2516L33.7917 14.5016C34.0687 14.2254 34.0692 13.7769 33.7929 13.4999C33.7925 13.4995 33.7921 13.499 33.7917 13.4986L21.0417 0.748616C20.7603 0.476815 20.3119 0.484653 20.0401 0.766017C19.7749 1.04054 19.7749 1.4757 20.0401 1.75022L20.0401 1.75301Z" fill="url(#paint0_linear_0_204)"/>
<defs>
<linearGradient id="paint0_linear_0_204" x1="16.7732" y1="28.5713" x2="11.1995" y2="1.09326" gradientUnits="userSpaceOnUse">
<stop stop-color="#009EE2"/>
<stop offset="1" stop-color="#273992"/>
</linearGradient>
</defs>
</svg>
