<svg width="11" height="11" viewBox="0 0 11 11" fill="none" xmlns="http://www.w3.org/2000/svg">
<path d="M8.25 0H2.75C1.23763 0 0 1.2371 0 2.75V8.25C0 9.76237 1.23763 11 2.75 11H8.25C9.76237 11 11 9.76237 11 8.25V2.75C11 1.2371 9.76237 0 8.25 0ZM5.5 7.79158C4.23417 7.79158 3.20829 6.76527 3.20829 5.5C3.20829 4.23417 4.23417 3.20829 5.5 3.20829C6.76527 3.20829 7.79171 4.23417 7.79171 5.5C7.79171 6.76527 6.76527 7.79158 5.5 7.79158ZM8.47921 3.20829C8.09915 3.20829 7.79171 2.90042 7.79171 2.52079C7.79171 2.14116 8.09915 1.83329 8.47921 1.83329C8.85927 1.83329 9.16671 2.14116 9.16671 2.52079C9.16671 2.90042 8.85927 3.20829 8.47921 3.20829Z" fill="#939598"/>
</svg>
