<svg xmlns="http://www.w3.org/2000/svg" fill="none" preserveAspectRatio="none" viewBox="0 0 320 162"><path d="m670.227.704.752 26.615c-163.884 12.421-300.567 75.293-481.844 81.395-57.404 1.342-90.743-4.807-203.144-27.847l-.044-1.538 2.444.397c118.001 19.244 151.916 24.257 210.003 20.609 57.885-4.2 110.699-14.043 161.205-26.106 55.57-13.279 108.212-29.227 161.515-43.282C569.401 18.154 618.248 6.977 670.227.704Z" fill="url(#a)"/><path d="M638.444 24.049V162H-8.796V80.103l2.292.44c110.741 21.346 142.582 26.991 197.445 25.095 54.687-2.426 104.786-10.32 152.681-20.376 50.276-10.54 98.127-23.462 146.331-34.928 2.381-.574 4.719-1.147 7.1-1.676 45.866-10.805 92.217-20.067 141.391-24.61Z" fill="#fff"/><defs><linearGradient id="a" x1="-42.993" x2="111.442" y1="67.435" y2="-241.061" gradientUnits="userSpaceOnUse"><stop stop-color="#009EE2"/><stop offset="1" stop-color="#273992"/></linearGradient></defs></svg>