<svg height="200" viewBox="0 0 768 200" fill="none" xmlns="http://www.w3.org/2000/svg">
<path d="M831.385 0.80977L832.314 33.6776C629.927 49.0166 461.131 126.66 237.266 134.195C166.375 135.852 125.204 128.259 -13.6057 99.8059L-13.6594 97.9064L-10.6416 98.3972C135.083 122.162 176.965 128.352 248.7 123.848C320.185 118.66 385.407 106.505 447.778 91.6083C516.404 75.2097 581.413 55.5145 647.239 38.158C706.871 22.3592 767.194 8.55713 831.385 0.80977Z" fill="url(#paint0_linear_0_2569)"/>
<path d="M792.134 29.6389V200H-7.16992V98.8618L-4.33783 99.4065C132.42 125.767 171.742 132.738 239.495 130.396C307.029 127.401 368.899 117.652 428.047 105.234C490.135 92.2173 549.228 76.2595 608.756 62.0991C611.697 61.391 614.584 60.683 617.525 60.0295C674.166 46.6859 731.407 35.2486 792.134 29.6389Z" fill="white"/>
<defs>
<linearGradient id="paint0_linear_0_2569" x1="-49.3989" y1="83.2185" x2="141.32" y2="-297.756" gradientUnits="userSpaceOnUse">
<stop stop-color="#009EE2"/>
<stop offset="1" stop-color="#273992"/>
</linearGradient>
</defs>
</svg>
