<svg width="320" preserveAspectRatio="none" height="162" viewBox="0 0 320 162" fill="none" xmlns="http://www.w3.org/2000/svg">
<path d="M670.227 0.704445L670.979 27.3193C507.095 39.7402 370.412 102.612 189.135 108.714C131.731 110.056 98.3924 103.907 -14.0092 80.8671L-14.0526 79.329L-11.609 79.7264C106.392 98.97 140.307 103.983 198.394 100.335C256.279 96.1343 309.093 86.292 359.599 74.2291C415.169 60.9502 467.811 45.0019 521.114 30.9474C569.401 18.1542 618.248 6.97791 670.227 0.704445Z" fill="url(#paint0_linear_0_3907)"/>
<path d="M638.444 24.0488V162H-8.79688V80.1025L-6.50357 80.5435C104.237 101.889 136.078 107.534 190.941 105.638C245.628 103.212 295.727 95.3177 343.622 85.2624C393.898 74.722 441.749 61.8001 489.953 50.3336C492.334 49.7603 494.672 49.187 497.053 48.6577C542.919 37.8528 589.27 28.5913 638.444 24.0488Z" fill="white"/>
<defs>
<linearGradient id="paint0_linear_0_3907" x1="-42.9929" y1="67.4354" x2="111.442" y2="-241.061" gradientUnits="userSpaceOnUse">
<stop stop-color="#009EE2"/>
<stop offset="1" stop-color="#273992"/>
</linearGradient>
</defs>
</svg>
