<svg xmlns="http://www.w3.org/2000/svg" fill="none" preserveAspectRatio="none" viewBox="0 0 1460 366"><path d="m1525.67.067 1.7 60.349C1155.77 88.58 845.846 231.14 434.808 244.976c-130.163 3.043-205.758-10.899-460.625-63.142l-.098-3.488 5.54.901c267.565 43.635 344.465 55.001 476.177 46.731 131.253-9.526 251.007-31.844 365.527-59.196 126.004-30.109 245.371-66.272 366.231-98.14 109.49-29.008 220.25-54.35 338.11-68.575Z" fill="url(#a)"/><path d="M1453.6 53v312.8H-14V180.1l5.2 1c251.1 48.4 323.3 61.2 447.7 56.9 124-5.5 237.6-23.4 346.2-46.2 114-23.9 222.5-53.2 331.8-79.2 5.4-1.3 10.7-2.6 16.1-3.8 104-24.5 209.1-45.5 320.6-55.8Z" fill="#fff"/><defs><linearGradient id="a" x1="-91.537" x2="258.641" y1="151.378" y2="-548.129" gradientUnits="userSpaceOnUse"><stop stop-color="#009EE2"/><stop offset="1" stop-color="#273992"/></linearGradient></defs></svg>