<svg height="366" width="1460" preserveAspectRatio="none" viewBox="0 0 1460 366" fill="none" xmlns="http://www.w3.org/2000/svg">
<path d="M1525.67 0.067302L1527.37 60.4157C1155.77 88.5797 845.846 231.14 434.808 244.976C304.645 248.019 229.05 234.077 -25.8168 181.834L-25.9153 178.346L-20.3745 179.247C247.19 222.882 324.09 234.248 455.802 225.978C587.055 216.452 706.809 194.134 821.329 166.782C947.333 136.673 1066.7 100.51 1187.56 68.6423C1297.05 39.6342 1407.81 14.2922 1525.67 0.067302Z" fill="url(#paint0_linear_66_4062)"/>
<path d="M1453.6 53V365.8H-14V180.1L-8.8 181.1C242.3 229.5 314.5 242.3 438.9 238C562.9 232.5 676.5 214.6 785.1 191.8C899.1 167.9 1007.6 138.6 1116.9 112.6C1122.3 111.3 1127.6 110 1133 108.8C1237 84.3 1342.1 63.3 1453.6 53Z" fill="white"/>
<defs>
<linearGradient id="paint0_linear_66_4062" x1="-91.5366" y1="151.378" x2="258.641" y2="-548.129" gradientUnits="userSpaceOnUse">
<stop stop-color="#009EE2"/>
<stop offset="1" stop-color="#273992"/>
</linearGradient>
</defs>
</svg>
