<svg xmlns="http://www.w3.org/2000/svg" fill="none" viewBox="0 0 768 200"><path d="m831.385.81.929 32.868C629.927 49.017 461.131 126.66 237.266 134.195c-70.891 1.657-112.062-5.936-250.872-34.39l-.053-1.899 3.017.491c145.725 23.765 187.607 29.955 259.342 25.451 71.485-5.188 136.707-17.343 199.078-32.24 68.626-16.398 133.635-36.094 199.461-53.45C706.871 22.359 767.194 8.558 831.385.81Z" fill="url(#a)"/><path d="M792.134 29.639V200H-7.17V98.862l2.832.544c136.758 26.361 176.08 33.332 243.833 30.99 67.534-2.995 129.404-12.744 188.552-25.162 62.088-13.017 121.181-28.974 180.709-43.135 2.941-.708 5.828-1.416 8.769-2.07 56.641-13.343 113.882-24.78 174.609-30.39Z" fill="#fff"/><defs><linearGradient id="a" x1="-49.399" x2="141.32" y1="83.219" y2="-297.756" gradientUnits="userSpaceOnUse"><stop stop-color="#009EE2"/><stop offset="1" stop-color="#273992"/></linearGradient></defs></svg>