<svg width="329" height="80" viewBox="0 0 329 80" fill="none" xmlns="http://www.w3.org/2000/svg">
<path d="M56.9909 6.45661C55.6999 7.1945 54.0399 8.73178 52.7489 10.3306C51.6423 11.7448 49.7979 14.2045 49.4291 14.6964C49.4291 14.6964 45.9863 19.3697 41.8672 24.9654C51.6423 23.5511 57.7901 18.9393 60.6796 13.3436C62.3395 10.0846 62.4625 7.13301 61.2329 6.14916C61.11 6.08766 60.987 5.96468 60.8641 5.90319C60.5567 5.71872 60.1263 5.65723 59.696 5.65723C58.8967 5.65723 57.9131 5.96468 56.9909 6.45661Z" fill="#073773"/>
<path d="M62.769 16.4798C57.5434 25.642 47.5224 30.0694 37.3784 30.9917C35.5955 33.3899 33.8126 35.788 32.3372 37.8172C31.292 39.2315 29.9395 41.0148 28.6484 42.675C32.706 45.2577 36.8866 48.0248 41.1901 50.5459C43.4033 47.5328 45.555 44.5813 47.5224 41.9371H44.0181C40.2679 41.9371 38.3006 42.7365 37.194 43.5974H36.8866C36.8866 43.5974 37.9932 41.1992 39.9605 39.4775C42.0508 37.6943 44.4484 36.7719 47.1535 36.7719H51.3955C53.6087 33.7588 55.0842 31.7911 55.0842 31.7911C58.0967 27.7327 61.4165 24.7811 64.6749 23.1823C68.7325 21.1531 72.7286 20.9687 75.741 21.9525C73.1589 16.8488 69.5317 12.2984 65.1052 8.73193C65.0437 10.9456 64.429 13.5897 62.769 16.4798Z" fill="#073773"/>
<path d="M68.1203 41.9984H57.4845C54.5336 45.9953 51.1522 50.6071 48.3242 54.4196C53.7343 57.0637 59.1444 58.8469 64.3086 58.8469C74.3297 58.8469 79.8627 50.6686 79.8627 39.9692C79.8627 38.3704 79.7398 36.7716 79.5553 35.1729C78.5717 38.8623 74.637 41.9984 68.1203 41.9984Z" fill="#073773"/>
<path d="M72.2976 25.5187C69.8385 26.0107 67.8097 28.0399 65.1661 31.6064C65.1661 31.6064 63.6292 33.6971 61.293 36.8331H69.7155C75.9864 36.8331 79.3677 33.2666 78.384 29.2082C78.384 29.1467 78.384 29.0852 78.3225 29.0852C78.3225 29.0237 78.3225 29.0237 78.2611 28.9622C78.2611 28.9007 78.1996 28.8393 78.1996 28.7778C77.4618 26.5026 75.4945 25.3958 73.3428 25.3958C73.0969 25.3958 72.728 25.4572 72.2976 25.5187Z" fill="#073773"/>
<path d="M20.5968 12.7287C19.7361 19.0008 23.8551 24.166 31.7244 25.2114C36.5812 18.6318 40.4543 13.4051 40.4543 13.4051C44.8808 7.50192 47.094 5.28824 50.5983 3.32052C51.459 2.82859 52.3197 2.52114 53.1804 2.27517C49.0613 0.799385 44.5734 0 39.901 0C29.9415 0 21.6419 4.91929 20.5968 12.7287Z" fill="#073773"/>
<path d="M0 37.2022C1.84436 35.3575 4.79533 34.0047 9.59066 34.1891C13.1564 34.3121 17.2755 36.0954 21.8249 38.6165C23.6692 36.0954 25.6366 33.4513 27.6039 30.8071C19.2428 29.2084 14.9393 23.4282 14.9393 17.4636C14.9393 12.2368 17.214 7.80945 20.9027 4.79639C9.16031 11.13 0.983657 23.1822 0 37.2022Z" fill="#073773"/>
<path d="M8.72917 53.4974C5.83968 53.4974 3.44201 52.698 1.59766 51.4682C2.70427 55.1576 4.36419 58.6626 6.39298 61.7987C9.71283 66.718 13.8934 68.5627 20.5945 67.8248C26.9883 67.1484 32.3369 62.6596 37.2552 55.957C37.3167 55.8955 37.3782 55.834 37.4397 55.7726C34.6116 53.7434 31.8451 51.5912 29.0786 49.562C27.726 48.5781 26.435 47.5942 25.2054 46.6719C20.8404 50.7303 15.9836 53.4974 8.72917 53.4974Z" fill="#939598"/>
<path d="M15.3672 71.6373C22.1298 76.8641 30.6139 80.0001 39.8971 80.0001C54.529 80.0001 67.3166 72.1293 74.2637 60.4459C71.3742 63.459 67.1936 65.7957 61.2302 65.9802C55.3897 66.1646 49.6107 63.705 44.0162 60.2615C36.8847 68.9317 25.8185 74.5889 15.3672 71.6373Z" fill="#939598"/>
<path d="M6.33198 37.5713C3.31953 37.7557 -0.307705 39.662 0.061166 43.9048V43.9663C0.491516 48.2092 4.36467 49.808 8.48373 49.3776C12.6028 49.0086 15.4923 46.6104 18.9966 42.1831C14.8775 39.4775 10.9429 37.5098 7.1312 37.5098C6.88529 37.5098 6.57789 37.5098 6.33198 37.5713Z" fill="#939598"/>
<path d="M113.918 15.6804C112.258 17.2177 111.151 19.1239 110.721 21.4605L108.753 31.1147C108.323 33.1439 107.831 34.5582 107.278 35.2346C106.725 35.9724 105.802 36.2799 104.573 36.2799H103.651L101.438 38.5551L117.975 39.047C119.143 39.047 120.127 38.8625 120.865 38.4936C121.602 38.1246 122.648 37.3253 124.123 36.0339L124.369 34.8656C122.463 36.0339 120.311 36.5874 117.791 36.5874L107.155 36.4644C108.753 35.6035 109.922 34.5582 110.659 33.3898C111.397 32.2215 112.012 30.6227 112.442 28.4705L114.225 19.6158C114.901 16.2953 116.192 14.635 118.16 14.635C120.127 14.635 121.111 15.6189 121.111 17.5251C121.111 17.7096 121.111 17.8941 121.049 18.2015H122.033L122.832 14.3276C121.602 13.6512 120.496 13.2822 119.512 13.2822C117.483 13.4052 115.578 14.1431 113.918 15.6804Z" fill="#073773"/>
<path d="M131.563 25.5189C132.732 23.8586 133.9 23.0592 135.129 23.0592C136.297 23.0592 136.851 23.8586 136.851 25.4574C136.851 27.0561 136.174 28.3475 134.883 29.3928C133.592 30.3767 131.809 30.9916 129.473 31.176C129.719 29.0239 130.457 27.1176 131.563 25.5189ZM129.535 25.2729C127.321 27.8555 126.215 30.5611 126.215 33.4512C126.215 35.05 126.645 36.4028 127.567 37.4481C128.49 38.4935 129.658 38.9854 131.133 38.9854C133.469 38.9854 136.236 37.8171 139.494 35.5419L139.74 34.3736C136.974 36.2798 134.699 37.2022 132.793 37.2022C130.58 37.2022 129.473 35.7264 129.473 32.7133V32.0369C132.301 32.0369 134.699 31.299 136.728 29.8847C138.756 28.4704 139.74 26.7487 139.74 24.781C139.74 23.7971 139.433 22.9977 138.879 22.3828C138.326 21.7679 137.588 21.4604 136.666 21.4604C134.146 21.4604 131.809 22.7518 129.535 25.2729Z" fill="#073773"/>
<path d="M145.029 34.3122C145.029 32.0985 145.705 29.5774 146.996 26.7488C148.103 24.3506 149.64 23.1823 151.484 23.1823C152.775 23.1823 154.005 23.4898 155.357 24.0432L154.681 27.5482C153.451 29.9463 151.976 32.0985 150.316 33.9432C148.656 35.788 147.365 36.7103 146.504 36.7103C145.521 36.7103 145.029 35.911 145.029 34.3122ZM145.398 26.1339C143 29.024 141.832 31.9755 141.832 34.9271C141.832 37.6327 142.939 38.9855 145.09 38.9855C146.504 38.9855 148.041 38.1861 149.701 36.5259C151.361 34.8656 152.714 32.7749 153.882 30.1923H154.189L153.451 34.0047C153.206 35.2346 153.083 36.0954 153.083 36.6489C153.083 38.1861 153.82 38.9855 155.357 38.9855C157.14 38.9855 159.169 37.7557 161.444 35.3575L161.751 33.9432C159.722 36.2184 158.185 37.3253 157.14 37.3253C156.525 37.3253 156.218 37.0178 156.218 36.3414C156.218 35.9724 156.341 35.2346 156.587 34.0047L158.062 26.3798L159.169 21.8295C157.571 21.7065 156.034 21.645 154.558 21.645C150.869 21.645 147.857 23.1208 145.398 26.1339Z" fill="#073773"/>
<path d="M166.24 34.3122C166.24 32.0985 166.916 29.5773 168.207 26.7488C169.314 24.3506 170.851 23.1823 172.695 23.1823C173.986 23.1823 175.277 23.4897 176.568 24.0431L175.892 27.5481C174.662 29.9463 173.187 32.0985 171.527 33.9432C169.867 35.788 168.576 36.7718 167.715 36.7718C166.67 36.7103 166.24 35.9109 166.24 34.3122ZM181.732 13.9586C180.564 14.881 179.581 15.9263 178.966 16.9717C178.29 18.0785 177.675 19.6158 177.06 21.645C174.908 21.645 173.248 21.8295 172.142 22.1369C171.035 22.4444 169.867 23.0593 168.76 23.9817C167.039 25.3345 165.687 27.0562 164.641 29.0854C163.596 31.1146 163.043 33.0823 163.043 34.9271C163.043 37.6327 164.15 39.047 166.301 39.047C167.715 39.047 169.252 38.2476 170.851 36.5873C172.511 34.9271 173.863 32.8364 175.093 30.2538H175.4L174.662 34.0662C174.416 35.296 174.294 36.2184 174.294 36.7103C174.294 38.2476 175.031 39.047 176.507 39.047C178.29 39.047 180.318 37.8172 182.593 35.419L182.901 34.0047C180.872 36.2799 179.335 37.3867 178.29 37.3867C177.675 37.3867 177.367 37.0793 177.367 36.4029C177.367 36.0954 177.49 35.296 177.736 34.1277L180.134 21.891C180.81 18.5704 181.548 16.3568 182.347 15.1269C183.208 13.8971 184.438 13.3437 186.097 13.3437C186.958 13.3437 188.003 13.5897 189.233 14.1431L191.323 11.9294C190.462 11.6834 189.54 11.6219 188.557 11.6219C186.036 11.499 183.761 12.3598 181.732 13.9586Z" fill="#073773"/>
<path d="M198.021 35.8492C197.099 34.8653 196.669 33.6355 196.669 32.1597C196.669 29.3926 198.083 27.3019 200.972 26.0106C202.263 29.7615 203.862 33.0206 205.706 35.7262C204.046 36.7715 202.632 37.2634 201.402 37.2634C199.988 37.3249 198.882 36.833 198.021 35.8492ZM202.755 20.2919C202.755 19.0621 203.062 18.0167 203.616 17.2788C204.169 16.4794 204.968 16.1105 205.89 16.1105C207.366 16.1105 208.104 17.0329 208.104 18.8161C208.104 21.3372 206.567 23.2435 203.493 24.4118C203.001 22.813 202.755 21.3987 202.755 20.2919ZM201.956 17.0944C200.603 18.3857 199.865 19.8615 199.865 21.4602C199.865 22.3211 200.173 23.5509 200.726 25.1497C195.869 27.1174 193.41 29.7615 193.41 33.0821C193.41 34.8653 194.025 36.2796 195.193 37.4479C196.361 38.6163 197.898 39.1697 199.681 39.1697C201.833 39.1697 203.984 38.3088 206.198 36.4641C209.948 41.5063 213.206 44.5809 219.416 45.0728C227.961 45.7492 232.265 39.8461 233.679 32.5286L234.601 27.9783H235.339C236.814 27.9783 238.412 28.1013 240.011 28.3472L241.548 26.7485H234.785L236.753 16.8484H237.429C241.671 16.8484 247.081 17.5248 247.081 18.8776C247.081 19.308 247.019 19.677 246.897 20.1074H247.88L249.294 15.7416H236.998C232.572 15.7416 229.252 16.4794 227.1 17.9552C224.887 19.431 223.658 21.7677 223.412 24.9037L226.424 23.4279V23.059C226.424 21.2143 227.1 19.7385 228.391 18.5701C229.683 17.4018 231.404 16.8484 233.556 16.8484L231.588 26.687H229.928L228.822 27.9168H231.281L229.744 35.6032C228.637 41.2604 225.994 43.6585 221.875 43.7815C215.727 44.0275 211.915 38.9852 208.78 34.6193C210.747 32.8361 212.161 30.6839 212.96 28.2243H213.452C214.559 28.2243 215.665 27.7323 216.895 26.81L218.125 24.9037C217.018 25.5801 215.481 25.8876 213.452 25.8876H209.333L207.858 28.1628H211.054C210.809 30.2535 209.825 32.0982 208.226 33.8199C206.628 31.3603 205.153 28.7777 203.8 25.2112C208.349 23.7969 210.624 21.6447 210.624 18.8161C210.624 17.7093 210.255 16.7869 209.518 16.049C208.78 15.3726 207.796 15.0037 206.567 15.0037C204.845 15.1266 203.308 15.803 201.956 17.0944Z" fill="#073773"/>
<path d="M248.374 32.6518C248.374 30.1307 248.988 27.8555 250.156 25.8263C251.324 23.7971 252.677 22.8132 254.152 22.8132C256.243 22.8132 257.288 24.535 257.288 27.917C257.288 30.4996 256.735 32.7748 255.566 34.7425C254.398 36.7102 253.046 37.6941 251.509 37.6941C249.419 37.6941 248.374 35.9723 248.374 32.6518ZM248.374 25.2114C246.099 27.7325 244.992 30.4996 244.992 33.4512C244.992 35.05 245.423 36.3413 246.345 37.3866C247.267 38.432 248.374 38.9854 249.726 38.9854C252.493 38.9854 255.013 37.7556 257.288 35.2344C259.563 32.7748 260.669 29.9462 260.669 26.8716C260.669 25.2729 260.177 23.9816 259.255 22.9362C258.333 21.8909 257.165 21.3989 255.689 21.3989C253.046 21.4604 250.587 22.6902 248.374 25.2114Z" fill="#073773"/>
<path d="M280.77 11.1303C280.463 11.4377 280.155 11.7452 279.909 12.1141C278.987 11.6837 277.819 11.5607 276.835 11.5607C273.884 11.5607 271.364 12.6061 269.335 14.6968C267.306 16.7875 265.892 19.6775 265.154 23.4285L263.003 34.1279C262.757 35.2348 262.695 36.0957 262.695 36.7721C262.695 38.3708 263.433 39.1702 264.909 39.1702C266.691 39.1702 268.782 37.9404 271.179 35.4193L271.487 34.005C271.118 34.3739 270.81 34.5584 270.688 34.7429C268.72 36.5876 267.368 37.51 266.691 37.51C266.077 37.51 265.769 37.2025 265.769 36.5261C265.769 36.1572 265.892 35.4193 266.138 34.1894L268.597 21.9527C269.274 18.6322 270.011 16.357 270.811 15.1887C271.61 14.0204 272.901 13.4669 274.499 13.4054C275.79 13.3439 277.512 13.8974 278.434 14.6353C277.635 16.1725 277.02 17.9558 276.651 19.985L273.823 34.1894C273.577 35.2963 273.516 36.1572 273.516 36.8336C273.516 38.4323 274.253 39.2317 275.729 39.2317C277.512 39.2317 279.602 38.0019 282 35.4808L282.307 34.0665C281.938 34.4354 281.631 34.6199 281.508 34.8043C279.54 36.6491 278.188 37.5715 277.512 37.5715C276.897 37.5715 276.589 37.264 276.589 36.5876C276.589 36.2186 276.712 35.4808 276.958 34.2509L280.094 18.5092C280.77 15.1887 281.508 12.9135 282.307 11.7452C283.106 10.5769 284.336 9.96194 285.996 9.96194C286.856 9.96194 287.902 10.2079 289.07 10.7613L291.221 8.54764C290.422 8.30168 289.439 8.24019 288.455 8.24019C285.319 7.99422 282.799 9.03957 280.77 11.1303Z" fill="#073773"/>
<path d="M286.983 32.6518C286.983 30.1307 287.598 27.8555 288.766 25.8263C289.934 23.7971 291.286 22.8132 292.762 22.8132C294.852 22.8132 295.897 24.535 295.897 27.917C295.897 30.4996 295.344 32.7748 294.176 34.7425C293.008 36.7102 291.655 37.6941 290.118 37.6941C288.028 37.6941 286.983 35.9723 286.983 32.6518ZM286.983 25.2114C284.708 27.7325 283.602 30.4996 283.602 33.4512C283.602 35.05 284.032 36.3413 284.954 37.3866C285.876 38.432 286.983 38.9854 288.335 38.9854C291.102 38.9854 293.623 37.7556 295.897 35.2344C298.172 32.7748 299.279 29.9462 299.279 26.8716C299.279 25.2729 298.787 23.9816 297.865 22.9362C296.942 21.8909 295.774 21.3989 294.299 21.3989C291.655 21.4604 289.258 22.6902 286.983 25.2114Z" fill="#073773"/>
<path d="M300.938 25.3341L300.508 27.4248C302.106 24.9036 303.52 23.6738 304.75 23.6738C306.041 23.6738 306.902 24.5962 307.393 26.3794C307.885 28.1627 308.131 31.3602 308.131 35.972C308.131 36.9559 308.131 38.0012 308.07 39.0466L309.73 38.6777C311.943 35.972 314.34 32.0366 316.8 26.8714C317.353 29.577 317.599 33.0205 317.599 37.2019L317.537 39.0466L319.074 38.6777L321.964 34.7422L322.825 33.6354C324.976 30.7453 326.575 28.4086 327.497 26.7484C328.419 25.0881 328.911 23.8583 328.911 22.9974C328.911 22.567 328.849 22.1365 328.665 21.7061L325.222 21.8906C325.653 22.7514 325.898 23.4893 325.898 24.1657C325.898 25.2726 325.345 26.9328 324.3 29.085C323.255 31.2372 321.964 33.2664 320.488 35.2341C320.488 30.7453 319.812 26.2564 318.398 21.7061L316.984 22.075C316.492 26.1335 314.463 30.6223 311.021 35.6031L311.082 34.0043C311.082 25.703 309.484 21.5216 306.348 21.5216C304.565 21.4601 302.783 22.7515 300.938 25.3341Z" fill="#073773"/>
<path d="M106.174 51.7142H107.096C108.387 51.7142 108.94 52.5136 108.94 54.6043C108.94 56.695 108.448 57.4329 107.157 57.4329H106.174V51.7142ZM104.637 50.9148V58.2937H107.157C109.494 58.2937 110.723 57.0024 110.723 54.6658C110.723 52.2061 109.432 50.9763 107.157 50.9763H104.637V50.9148Z" fill="#939598"/>
<path d="M116.135 52.0216L117.18 55.4651H115.089L116.135 52.0216ZM115.643 50.9148L113.184 58.2937H114.106L114.782 56.203H117.364L117.979 58.2937H119.639L117.364 50.9148H115.643Z" fill="#939598"/>
<path d="M127.504 50.9148V55.4036L127.566 55.8956L124.492 50.9148H122.832V58.2937H123.816V53.4359L123.754 52.7595L127.258 58.2937H128.488V50.9148H127.504Z" fill="#939598"/>
<path d="M131.934 54.6655C131.934 56.9407 133.102 58.4165 135.315 58.4165C137.221 58.4165 137.897 57.0637 137.897 57.0637L137.405 56.5103C137.405 56.5103 136.729 57.5556 135.499 57.5556C134.27 57.5556 133.594 56.8177 133.594 54.6041C133.594 52.3904 134.208 51.6525 135.438 51.6525C136.299 51.6525 137.344 52.2059 137.344 52.2059L137.528 51.4065C137.528 51.4065 136.422 50.8531 135.253 50.8531C133.163 50.7916 131.934 52.3289 131.934 54.6655Z" fill="#939598"/>
<path d="M141.094 50.9148V58.2937H145.643V57.4943H142.631V54.9732H145.151V54.1738H142.631V51.7142H145.52V50.9148H141.094Z" fill="#939598"/>
<path d="M154.253 53.0054C154.253 55.3421 157.204 55.0961 157.204 56.5104C157.204 57.1253 156.835 57.5558 156.097 57.5558C154.99 57.5558 154.376 56.8179 154.376 56.8179L153.945 57.4943C153.945 57.4943 154.499 58.4166 156.159 58.4166C157.573 58.4166 158.741 57.6173 158.741 56.203C158.741 53.7433 155.79 54.1123 155.79 52.5135C155.79 51.8986 156.159 51.5911 156.712 51.5911C157.511 51.5911 158.249 52.0831 158.249 52.0831L158.433 51.2837C158.433 51.2837 157.634 50.7917 156.65 50.7917C155.236 50.7917 154.253 51.6526 154.253 53.0054Z" fill="#939598"/>
<path d="M161.75 54.6655C161.75 56.9407 162.918 58.4165 165.131 58.4165C167.037 58.4165 167.713 57.0637 167.713 57.0637L167.222 56.5103C167.222 56.5103 166.545 57.5556 165.316 57.5556C164.086 57.5556 163.41 56.8177 163.41 54.6041C163.41 52.3904 164.025 51.6525 165.254 51.6525C166.115 51.6525 167.16 52.2059 167.16 52.2059L167.345 51.4065C167.345 51.4065 166.238 50.8531 165.07 50.8531C162.98 50.7916 161.75 52.3289 161.75 54.6655Z" fill="#939598"/>
<path d="M175.029 50.9148V54.1123H172.447V50.9148H170.91V58.2937H172.447V54.9117H175.029V58.2937H176.566V50.9148H175.029Z" fill="#939598"/>
<path d="M181.729 54.6042C181.729 52.5135 182.221 51.5911 183.328 51.5911C184.496 51.5911 184.988 52.5135 184.988 54.6042C184.988 56.6949 184.496 57.6173 183.328 57.6173C182.16 57.6173 181.729 56.6949 181.729 54.6042ZM180.008 54.6042C180.008 56.9409 181.176 58.4166 183.328 58.4166C185.479 58.4166 186.709 56.9409 186.709 54.6042C186.709 52.2675 185.541 50.7917 183.328 50.7917C181.176 50.7917 180.008 52.329 180.008 54.6042Z" fill="#939598"/>
<path d="M191.503 54.6042C191.503 52.5135 191.994 51.5911 193.101 51.5911C194.269 51.5911 194.761 52.5135 194.761 54.6042C194.761 56.6949 194.269 57.6173 193.101 57.6173C191.933 57.6173 191.503 56.6949 191.503 54.6042ZM189.781 54.6042C189.781 56.9409 190.949 58.4166 193.101 58.4166C195.253 58.4166 196.482 56.9409 196.482 54.6042C196.482 52.2675 195.314 50.7917 193.101 50.7917C190.949 50.7917 189.781 52.329 189.781 54.6042Z" fill="#939598"/>
<path d="M199.93 50.9148V58.2937H204.356V57.4943H201.467V50.9148H199.93Z" fill="#939598"/>
</svg>
